# xmcd CD database file
#
# Track frame offsets:
#	150
#	11705
#	23322
#	38112
#	50872
#	68775
#	85095
#	108472
#	126595
#	140127
#	159627
#	176610
#	195045
#	209600
#	224742
#	240605
#	261490
#
# Disc length: 3708 seconds
#
# Revision: 0
# Processed by: cddbd v1.4PL0 Copyright (c) Steve Scherf et al.
# Submitted via: CDex 1.50
#
DISCID=000e7a11
DTITLE=Bent Persson - Louis Armstrong's 50 Choruses for Cornet 1927, Vol. 1-2
DYEAR=1996
DGENRE=Jazz
TTITLE0=Bucktown Blues
TTITLE1=Jimtown Blues
TTITLE2=Kansas City Stomps
TTITLE3=High Society
TTITLE4=Café Capers
TTITLE5=Angry
TTITLE6=New Orleans Stomp
TTITLE7=Dead Man Blues
TTITLE8=Slippery Elm
TTITLE9=Mobile Blues
TTITLE10=The Pearls
TTITLE11=Black Bottom Stomp
TTITLE12=Wolverine Blues
TTITLE13=Chimes Blues
TTITLE14=Weary Blues
TTITLE15=Tin Roof Blues
TTITLE16=Dr. Jazz
EXTD=YEAR: 1996
EXTT0=
EXTT1=
EXTT2=
EXTT3=
EXTT4=
EXTT5=
EXTT6=
EXTT7=
EXTT8=
EXTT9=
EXTT10=
EXTT11=
EXTT12=
EXTT13=
EXTT14=
EXTT15=
EXTT16=
PLAYORDER=
